<?xml version="1.0" encoding="utf-8"?>
<!-- Generator: Adobe Illustrator 19.2.1, SVG Export Plug-In . SVG Version: 6.00 Build 0)  -->
<svg version="1.1" id="Laag_1" xmlns="http://www.w3.org/2000/svg" xmlns:xlink="http://www.w3.org/1999/xlink" x="0px" y="0px"
	 viewBox="0 0 22.7 22.7" style="enable-background:new 0 0 22.7 22.7;" xml:space="preserve">
<style type="text/css">
	.st0{fill:#FFFFFF;}
</style>
<g>
	<path class="st0" d="M0,20.9c0-0.5,0.2-0.9,0.5-1.2L5.2,15c-1.1-1.6-1.7-3.5-1.7-5.4C3.5,4.3,7.8,0,13.1,0s9.6,4.3,9.6,9.6
		s-4.3,9.6-9.6,9.6c-1.9,0-3.8-0.6-5.4-1.7L3,22.2c-0.3,0.3-0.8,0.5-1.2,0.5C0.8,22.7,0,21.9,0,20.9z M7,9.6c0,3.4,2.7,6.1,6.1,6.1
		s6.1-2.7,6.1-6.1s-2.7-6.1-6.1-6.1S7,6.2,7,9.6z"/>
</g>
</svg>
