<?xml version="1.0" encoding="utf-8"?>
<!-- Generator: Adobe Illustrator 22.0.1, SVG Export Plug-In . SVG Version: 6.00 Build 0)  -->
<svg version="1.1" id="Layer_1" xmlns="http://www.w3.org/2000/svg" xmlns:xlink="http://www.w3.org/1999/xlink" x="0px" y="0px"
	 viewBox="0 0 183 55" style="enable-background:new 0 0 183 55;" xml:space="preserve">
<style type="text/css">
	.st0{fill:#FFC20E;}
	.st1{fill:#231F20;}
</style>
<rect class="st0" width="183" height="55"/>
<polygon class="st1" points="27.7,17.6 49,17.6 49,21.4 32.2,21.4 32.2,24.2 49.1,24.2 49.1,28.4 32.2,28.4 32.2,35.2 27.7,35.2 "/>
<polygon class="st1" points="51.9,17.6 56.3,17.6 56.3,30.8 70.6,30.8 70.6,35.2 51.9,35.2 "/>
<path class="st1" d="M84.7,35.2h-8.6c0,0-3-0.1-3.3-3.3V17.6h4.4v13.5h15.4V17.6H97v14.3c-0.4,3.2-3.3,3.3-3.3,3.3H84.7L84.7,35.2z"
	/>
<polygon class="st1" points="101.4,17.6 101.4,35.2 105.8,35.2 105.8,28.6 116.3,35.2 124.2,35.2 110.2,26.2 123.5,17.6 115.7,17.6 
	105.8,23.7 105.8,17.6 "/>
<polygon class="st1" points="126.7,17.6 126.7,35.2 148.9,35.2 148.9,31.1 131.1,31.1 131.1,28.6 148.9,28.6 148.9,24.5 131.1,24.5 
	131.1,21.8 148.9,21.8 148.9,17.6 "/>
<path class="st1" d="M157,30c-1.4,0-2.6,1.2-2.6,2.6c0,1.4,1.2,2.6,2.6,2.6c1.4,0,2.6-1.2,2.6-2.6C159.6,31.2,158.4,30,157,30
	L157,30L157,30z M156.9,30.4C157,30.4,157,30.4,156.9,30.4c1.3,0,2.2,0.9,2.2,2.2c0,1.2-0.9,2.2-2.1,2.2c-1.2,0-2.1-1-2.1-2.2
	C154.9,31.4,155.7,30.5,156.9,30.4L156.9,30.4L156.9,30.4z M156,31.1v3h0.5v-1.3h0.5l0.8,1.3h0.4l-0.8-1.3c0.4-0.1,0.7-0.4,0.7-0.8
	c0-0.6-0.4-0.9-1-0.9L156,31.1L156,31.1z M156.4,32.4v-0.9h0.6c0.5,0,0.6,0.1,0.6,0.5c0,0.3-0.2,0.5-0.5,0.5H156.4L156.4,32.4z"/>
</svg>
